# xmcd
#
# Track frame offsets:
#	150
#	13747
#	26912
#	39005
#	50150
#	63570
#	80070
#	91542
#	107105
#	119222
#	135737
#	153127
#	171302
#	189240
#
# Disc length: 2675 seconds
#
# Revision: 1
# Processed by: cddbd v1.5.1PL0 Copyright (c) Steve Scherf et al.
# Submitted via: EasyCDDAExtractor 7.0.5.1
#
DISCID=ba0a710e
DTITLE=The Oak Ridge Boys - Collection
DYEAR=1992
DGENRE=Country
TTITLE0=Leavin' Louisana In The Broad Daylight
TTITLE1=Y'all Come Back Saloon
TTITLE2=Elvira
TTITLE3=Trying To Love Two Women
TTITLE4=You're The One
TTITLE5=I'll Be True To You
TTITLE6=Cryin' Again
TTITLE7=I Wish You Could Have Turned My Head (And Left My Heart Alone)
TTITLE8=American Made
TTITLE9=Fancy Free
TTITLE10=Love Song
TTITLE11=I Guess It Never Hurts To Hurt Sometimes
TTITLE12=It Takes A Little Rain (To Make Love Grow)
TTITLE13=Thank God For Kids
EXTD=
EXTT0=
EXTT1=
EXTT2=
EXTT3=
EXTT4=
EXTT5=
EXTT6=
EXTT7=
EXTT8=
EXTT9=
EXTT10=
EXTT11=
EXTT12=
EXTT13=
PLAYORDER=
